<svg height="85" viewBox="0 0 85 85" width="85" xmlns="http://www.w3.org/2000/svg"><g fill="none" fill-rule="evenodd"><path d="m82.1 3s-65.8-5.5-81.7 27.8c0 0 30.2-19.2 81.7-12.1z" fill="#f2e7de"/><path d="m82.1 12.5v6.1c-51.5-7-81.7 12.2-81.7 12.2s17.3-22.5 81.7-18.3z" fill="#e7dcee"/><path d="m84.4 85v-82c0-1.3-1-2.3-2.3-2.3s-2.3 1-2.3 2.3v82z" fill="#754d29"/><path d="m13.3 17.9c7.6 0 14 .6 19.6 1.6-5.2 1-9.9 2.2-13.9 3.4-.7-2-2.4-3.7-5.7-5z" fill="#f2e7de"/><path d="m56.1 62.9 1.6 22.1h-36.9l4.3-22.1z" fill="#4b3e52"/><path d="m15.8 46.1c0 13.8 11.1 24.9 24.9 24.9s24.9-11.2 24.9-24.9c0-17.5-11.3-40.2-50.7-31.6 13.4 5.2.9 17.8.9 31.6z" fill="#4b3e52"/><path d="m21.3 42.3c.7-2.9 4-11.7 19.5-11.7 13.9 0 17.8 7 18.9 10.6.4 1.6.6 3.3.6 5 0 10.9-8.8 19.7-19.7 19.7s-19.7-8.8-19.7-19.7c0-1.4.1-2.7.4-3.9z" fill="#f2e7de"/><path d="m40.6 34.9c-17.5 0-19.4 8-19.5 8.2 0-.3.1-.6.2-.9.7-2.9 4-11.7 19.5-11.7 13.9 0 17.8 7 18.9 10.6.2.6.3 1.3.4 2-.3-.6-2-8.2-19.5-8.2z" fill="#e7dcee"/><path d="m29.6018 61.2162h22v8.3h-22z" fill="#f2e7de" transform="matrix(-1 0 0 -1 81.2036 130.7324)"/><circle cx="51.1" cy="50.4" fill="#4b3e52" r="5.2"/><circle cx="36" cy="50.4" fill="#4b3e52" r="5.2"/><g fill="#e7dcee" transform="translate(37 65)"><path d="m12.7 4.5-.5-3.4c-.1-.6-.9-.6-1 0l-.5 3.4z"/><path d="m7.7 4.5-.5-3.4c-.1-.6-.9-.6-1 0l-.5 3.4z"/><path d="m2.7 4.5-.5-3.4c-.1-.6-.9-.6-1 0l-.5 3.4z"/></g><path d="m78.5 83.1v1.9h-22.9v-13.7c-.1 0 7.4 14 22.9 11.8z" fill="#4b3e52"/></g></svg>